<?xml version="1.0" encoding="UTF-8"?>
<svg width="800px" height="534px" viewBox="0 0 800 534" version="1.1" xmlns="http://www.w3.org/2000/svg" xmlns:xlink="http://www.w3.org/1999/xlink">
    <!-- Generator: Sketch 51.2 (57519) - http://www.bohemiancoding.com/sketch -->
    <title>awesome-igem-logo</title>
    <desc>Created with Sketch.</desc>
    <defs></defs>
    <g id="awesome-igem-logo" stroke="none" stroke-width="1" fill="none" fill-rule="evenodd">
        <g id="awesome-logo" transform="translate(47.000000, 131.000000)" fill-rule="nonzero">
            <path d="M29.1616818,213.675214 C31.4624062,213.675214 33.3605038,214.469818 34.9710109,216.059028 C36.581518,217.648237 37.3867715,219.577991 37.3867715,221.791533 L37.3867715,249.943243 L8.22508973,249.943243 C5.92436533,249.943243 4.0262677,249.148638 2.41576062,247.559428 C0.80525354,245.970219 0,244.040465 0,241.826923 L0,228.432158 L30.5421164,228.432158 L30.5421164,221.791533 C30.5421164,221.394231 30.4270802,221.110443 30.1394896,220.826656 C29.8518991,220.542869 29.5643085,220.429354 29.1616818,220.429354 L0,220.429354 L0,213.675214 L29.1616818,213.675214 Z M30.5421164,243.189103 L30.5421164,235.186298 L6.84465509,235.186298 L6.84465509,241.826923 C6.84465509,242.224225 6.95969131,242.508013 7.24728186,242.7918 C7.53487241,243.075588 7.82246296,243.189103 8.22508973,243.189103 L30.5421164,243.189103 Z M96.5153886,213.675214 L103.820189,213.675214 L90.0158421,249.943243 L84.4365855,249.943243 L72.0701918,222.98344 L60.3940155,249.943243 L60.2789793,249.886485 L60.3364974,249.943243 L54.8147588,249.943243 L40.3777132,213.675214 L47.6249951,213.675214 L57.5756281,237.740385 L68.1589603,213.675214 L75.9814233,213.675214 L87.1974547,237.740385 L96.5153886,213.675214 Z M135.167558,213.675214 C137.468283,213.675214 139.366381,214.469818 140.976888,216.059028 C142.587395,217.648237 143.392648,219.577991 143.392648,221.791533 L143.392648,235.186298 L112.850532,235.186298 L112.850532,241.826923 C112.850532,242.224225 112.965568,242.508013 113.253159,242.7918 C113.540749,243.075588 113.82834,243.189103 114.230966,243.189103 L143.392648,243.189103 L143.392648,249.943243 L114.230966,249.943243 C111.930242,249.943243 110.032144,249.148638 108.421637,247.559428 C106.81113,245.970219 106.005877,244.040465 106.005877,241.826923 L106.005877,221.791533 C106.005877,219.521234 106.81113,217.648237 108.421637,216.059028 C110.032144,214.469818 111.98776,213.675214 114.230966,213.675214 L135.167558,213.675214 Z M112.850532,228.432158 L136.547993,228.432158 L136.547993,221.791533 C136.547993,221.394231 136.432957,221.110443 136.145366,220.826656 C135.857776,220.542869 135.570185,220.429354 135.167558,220.429354 L114.230966,220.429354 C113.82834,220.429354 113.540749,220.542869 113.253159,220.826656 C112.965568,221.110443 112.850532,221.394231 112.850532,221.791533 L112.850532,228.432158 Z M187.048894,221.848291 L187.048894,223.21047 L180.204239,223.21047 L180.204239,221.848291 C180.204239,221.450988 180.089202,221.167201 179.801612,220.883413 C179.514021,220.599626 179.226431,220.486111 178.823804,220.486111 L157.887212,220.486111 C157.484585,220.486111 157.196995,220.599626 156.909404,220.883413 C156.621813,221.167201 156.506777,221.450988 156.506777,221.848291 L156.506777,227.126736 C156.506777,227.524038 156.621813,227.807826 156.909404,228.091613 C157.196995,228.375401 157.484585,228.488916 157.887212,228.488916 L178.823804,228.488916 C181.124528,228.488916 183.022626,229.28352 184.633133,230.87273 C186.24364,232.461939 187.048894,234.391693 187.048894,236.605235 L187.048894,241.883681 C187.048894,244.15398 186.24364,246.026976 184.633133,247.616186 C183.022626,249.205395 181.06701,250 178.823804,250 L157.887212,250 C155.586488,250 153.68839,249.205395 152.077883,247.616186 C150.467376,246.026976 149.662122,244.097222 149.662122,241.883681 L149.662122,240.521501 L156.506777,240.521501 L156.506777,241.883681 C156.506777,242.280983 156.621813,242.56477 156.909404,242.848558 C157.196995,243.132345 157.484585,243.24586 157.887212,243.24586 L178.823804,243.24586 C179.226431,243.24586 179.514021,243.132345 179.801612,242.848558 C180.089202,242.56477 180.204239,242.280983 180.204239,241.883681 L180.204239,236.605235 C180.204239,236.207933 180.089202,235.924145 179.801612,235.640358 C179.514021,235.356571 179.226431,235.243056 178.823804,235.243056 L157.887212,235.243056 C155.586488,235.243056 153.68839,234.448451 152.077883,232.859241 C150.467376,231.270032 149.662122,229.340278 149.662122,227.126736 L149.662122,221.848291 C149.662122,219.577991 150.467376,217.704995 152.077883,216.115785 C153.68839,214.526576 155.644006,213.731971 157.887212,213.731971 L178.823804,213.731971 C181.124528,213.731971 183.022626,214.526576 184.633133,216.115785 C186.24364,217.648237 187.048894,219.577991 187.048894,221.848291 Z M201.543457,213.675214 L222.480049,213.675214 C224.780774,213.675214 226.678871,214.469818 228.289379,216.059028 C229.899886,217.648237 230.705139,219.577991 230.705139,221.791533 L230.705139,241.826923 C230.705139,244.097222 229.899886,245.970219 228.289379,247.559428 C226.678871,249.148638 224.723256,249.943243 222.480049,249.943243 L201.543457,249.943243 C199.242733,249.943243 197.344635,249.148638 195.734128,247.559428 C194.123621,245.970219 193.318368,244.040465 193.318368,241.826923 L193.318368,221.791533 C193.318368,219.521234 194.123621,217.648237 195.734128,216.059028 C197.344635,214.469818 199.300251,213.675214 201.543457,213.675214 Z M222.480049,220.429354 L201.543457,220.429354 C201.140831,220.429354 200.85324,220.542869 200.56565,220.826656 C200.278059,221.110443 200.163023,221.394231 200.163023,221.791533 L200.163023,241.826923 C200.163023,242.224225 200.278059,242.508013 200.56565,242.7918 C200.85324,243.075588 201.140831,243.189103 201.543457,243.189103 L222.480049,243.189103 C222.882676,243.189103 223.170267,243.075588 223.457857,242.7918 C223.745448,242.508013 223.860484,242.224225 223.860484,241.826923 L223.860484,221.791533 C223.860484,221.394231 223.745448,221.110443 223.457857,220.826656 C223.170267,220.599626 222.882676,220.429354 222.480049,220.429354 Z M284.312018,213.675214 C286.612742,213.675214 288.51084,214.469818 290.121347,216.059028 C291.731854,217.648237 292.537107,219.577991 292.537107,221.791533 L292.537107,249.943243 L285.74997,249.943243 L285.74997,221.791533 C285.74997,221.394231 285.634934,221.110443 285.347344,220.826656 C285.059753,220.542869 284.714644,220.429354 284.312018,220.429354 L269.817454,220.429354 C269.414827,220.429354 269.127237,220.542869 268.839646,220.826656 C268.552056,221.110443 268.437019,221.394231 268.437019,221.791533 L268.437019,249.943243 L261.592364,249.943243 L261.592364,221.791533 C261.592364,221.394231 261.477328,221.110443 261.189737,220.826656 C260.902147,220.542869 260.614556,220.429354 260.21193,220.429354 L245.659848,220.429354 C245.257221,220.429354 244.96963,220.542869 244.68204,220.826656 C244.394449,221.110443 244.279413,221.394231 244.279413,221.791533 L244.279413,249.943243 L237.434758,249.943243 L237.434758,213.675214 L284.312018,213.675214 Z M328.313372,213.675214 C330.614096,213.675214 332.512194,214.469818 334.122701,216.059028 C335.733208,217.648237 336.538462,219.577991 336.538462,221.791533 L336.538462,235.186298 L305.996345,235.186298 L305.996345,241.826923 C305.996345,242.224225 306.111381,242.508013 306.398972,242.7918 C306.686562,243.075588 306.974153,243.189103 307.37678,243.189103 L336.538462,243.189103 L336.538462,249.943243 L307.37678,249.943243 C305.076055,249.943243 303.177958,249.148638 301.567451,247.559428 C299.956944,245.970219 299.15169,244.040465 299.15169,241.826923 L299.15169,221.791533 C299.15169,219.521234 299.956944,217.648237 301.567451,216.059028 C303.177958,214.469818 305.133573,213.675214 307.37678,213.675214 L328.313372,213.675214 Z M305.996345,228.432158 L329.693806,228.432158 L329.693806,221.791533 C329.693806,221.394231 329.57877,221.110443 329.29118,220.826656 C329.003589,220.542869 328.715999,220.429354 328.313372,220.429354 L307.37678,220.429354 C306.974153,220.429354 306.686562,220.542869 306.398972,220.826656 C306.111381,221.110443 305.996345,221.394231 305.996345,221.791533 L305.996345,228.432158 Z" id="Shape" fill="#494368"></path>
            <path d="M336.538462,79.6794025 L250.246548,0.0578644898 L238.108153,13.3666972 L310.01808,79.6794025 L26.5779093,79.6794025 L98.4878369,13.3088327 L86.3494412,0 L0.0575279421,79.6794025 L0,79.6794025 L0,132.162495 C0,155.886936 22.7235371,175.213675 50.6245891,175.213675 L103.837936,175.213675 C131.738988,175.213675 154.462525,155.886936 154.462525,132.162495 L154.462525,97.6752588 L182.075937,97.6752588 L182.075937,132.162495 C182.075937,155.886936 204.799474,175.213675 232.700526,175.213675 L285.913872,175.213675 C313.814924,175.213675 336.538462,155.886936 336.538462,132.162495 L336.538462,79.6794025 Z" id="Shape" fill="#FC60A8"></path>
        </g>
        <g id="igem-logo" transform="translate(442.000000, 131.000000)">
            <path d="M118.646932,189.050368 C122.161395,194.350336 126.554474,198.766976 131.826169,202.300288 C130.947553,203.183616 130.068938,204.066944 130.068938,204.950272 L119.525547,222.616832 C116.8897,227.033472 118.646932,232.33344 123.040011,234.983424 L128.311706,237.633408 C132.704785,240.283392 137.97648,238.516736 140.612328,234.100096 L151.155718,216.433536 C152.034334,215.550208 152.034334,214.66688 152.034334,212.900224 C156.427413,214.66688 160.820492,216.433536 166.092187,217.316864 C165.213571,218.200192 165.213571,219.966848 165.213571,220.850176 L165.213571,241.16672 C165.213571,246.466688 169.60665,250 173.99973,250 L179.271425,250 C184.54312,250 188.057583,245.58336 188.057583,241.16672 L188.057583,220.850176 C188.057583,219.966848 188.057583,219.08352 187.178967,218.200192 C193.329278,217.316864 198.600973,216.433536 204.751284,213.783552 C204.751284,214.66688 205.6299,215.550208 205.6299,216.433536 L215.294674,234.100096 C217.930522,238.516736 223.202217,240.283392 227.595296,237.633408 L232.866991,234.983424 C237.26007,232.33344 239.017302,227.033472 236.381454,222.616832 L225.838064,204.950272 C225.838064,204.066944 224.959448,204.066944 224.080833,203.183616 C229.352528,199.650304 233.745607,194.350336 238.138686,189.933696 C239.017302,190.817024 239.895918,191.700352 240.774534,192.58368 L258.346851,203.183616 C262.73993,205.8336 268.011625,204.066944 270.647472,199.650304 L273.28332,194.350336 C275.919167,189.933696 274.161936,184.633728 269.768856,181.983744 L252.19654,171.383808 C251.317924,170.50048 249.560692,170.50048 248.682076,170.50048 C251.317924,165.200512 253.075155,159.017216 253.953771,152.83392 C254.832387,152.83392 255.711003,153.717248 256.589619,153.717248 L276.797783,153.717248 C282.069478,153.717248 285.583942,149.300608 285.583942,144.883968 L285.583942,138.700672 C285.583942,133.400704 281.190862,129.867392 276.797783,129.867392 L258.346851,129.867392 C257.468235,129.867392 256.589619,129.867392 255.711003,129.867392 C254.832387,123.684096 253.075155,117.5008 251.317924,111.317504 C252.19654,111.317504 253.075155,110.434176 253.953771,110.434176 L271.526088,99.8342397 C275.919167,97.1842557 277.676399,91.8842877 275.040552,87.4676477 L272.404704,82.1676796 C269.768856,77.7510396 264.497161,75.9843836 260.104082,78.6343676 L242.531765,89.2343037 C241.653149,89.2343037 240.774534,90.1176317 240.774534,91.0009597 C237.26007,85.7009917 231.988375,81.2843516 227.595296,76.8677116 C228.473912,75.9843836 229.352528,75.1010556 230.231144,74.2177276 L239.895918,56.5511676 C242.531765,52.1345276 240.774534,46.8345596 236.381454,44.1845756 L231.109759,41.5345916 C226.71668,38.8846076 221.444985,40.6512636 218.809138,45.0679036 L208.265747,62.7344636 C207.387132,63.6177916 207.387132,65.3844476 207.387132,66.2677756 C201.236821,63.6177916 194.207894,61.8511356 187.178967,60.9678076 C188.057583,60.0844796 188.057583,58.3178236 188.057583,57.4344956 L188.057583,37.1179516 C188.057583,31.8179835 184.54312,28.2846715 179.271425,28.2846715 L173.99973,28.2846715 C168.728035,28.2846715 165.213571,32.7013115 165.213571,37.1179516 L165.213571,57.4344956 C165.213571,59.2011516 165.213571,60.9678076 166.092187,61.8511356 C160.820492,62.7344636 155.548797,64.5011196 150.277102,66.2677756 C150.277102,65.3844476 149.398486,64.5011196 149.398486,63.6177916 L139.733712,45.9512316 C137.097864,41.5345916 131.826169,39.7679356 127.43309,42.4179196 L122.161395,45.0679036 C117.768316,47.7178876 116.011084,53.0178556 118.646932,57.4344956 L128.311706,75.1010556 C129.190322,75.9843836 129.190322,76.8677116 130.068938,76.8677116 C124.797242,81.2843516 120.404163,85.7009917 116.8897,91.0009597 C116.011084,90.1176317 115.132468,88.3509757 113.375237,87.4676477 L95.8029197,76.8677116 C91.4098405,74.2177276 86.1381454,75.9843836 83.5022979,80.4010236 L82.6236821,88.3509757 C79.9878345,92.7676157 81.7450662,98.0675837 86.1381454,100.717568 L103.710462,111.317504 C105.467694,112.200832 107.224926,112.200832 108.982157,112.200832 C106.34631,118.384128 104.589078,125.450752 104.589078,132.517376 C103.710462,132.517376 102.831846,131.634048 101.074615,131.634048 L80.8664504,131.634048 C75.5947553,131.634048 72.080292,136.050688 72.080292,140.467328 L72.080292,146.650624 C72.080292,151.950592 75.5947553,155.483904 80.8664504,155.483904 L101.074615,155.483904 C102.831846,155.483904 103.710462,155.483904 105.467694,154.600576 C106.34631,159.017216 108.103541,164.317184 109.860773,168.733824 C108.982157,168.733824 107.224926,169.617152 106.34631,169.617152 L88.773993,180.217088 C84.3809138,182.867072 82.6236821,188.16704 85.2595296,192.58368 L87.8953771,197.883648 C90.5312247,202.300288 95.8029197,204.066944 100.195999,201.41696 L117.768316,190.817024 C116.8897,190.817024 117.768316,189.933696 118.646932,189.050368 Z M139.733712,164.317184 C127.43309,142.233984 134.462017,113.967488 156.427413,100.717568 C178.392809,88.3509757 205.6299,95.4175997 217.930522,117.5008 C230.231144,139.584 223.202217,167.850496 201.236821,181.100416 C180.150041,194.350336 152.034334,186.400384 139.733712,164.317184 Z" id="Shape" fill="#10996A"></path>
            <path d="M42.6560067,107.415957 C54.997097,53.6516297 68.2196936,34.2612168 70.864213,26.3287751 C74.3902387,18.3963334 84.9683161,3.41283251 100.835432,0.768685288 C116.702548,-2.75684434 137.858703,6.93836214 140.503222,7.81974455 C142.266235,8.70112696 160.77787,15.7521862 167.829922,27.2101575 C175.76348,39.5495112 174.881973,55.4143946 166.948415,75.6861899 C158.133351,95.9579853 147.555274,112.704251 144.029248,121.518075 C141.384729,127.687752 139.621716,138.264341 140.503222,161.180283 C141.384729,184.096226 139.621716,202.605257 131.688158,214.063228 C124.636106,223.758434 110.532003,232.572258 86.731329,231.690876 C62.930655,231.690876 51.4710712,220.232905 45.3005261,209.656316 C37.3669681,195.554197 29.4334101,160.298901 42.6560067,107.415957 Z" id="Shape" fill="#1C6937"></path>
            <path d="M51.3786191,106.002904 C63.6911871,57.4213512 73.3653476,39.7553321 76.8832242,33.5722254 C81.2805699,25.6225169 87.4368539,14.1396045 100.628891,11.4897016 C113.820928,8.83979875 131.410311,16.7895073 133.169249,16.7895073 C134.928188,17.6728083 150.758632,22.972614 157.794385,33.5722254 C163.950669,44.1718369 162.191731,58.3046521 154.276509,75.9706712 C146.361286,94.5199912 136.687126,109.536107 134.048718,116.602515 C131.410311,121.902321 128.771904,132.501932 129.651373,152.817854 C130.530842,173.133776 129.651373,196.099601 123.495089,205.815911 C117.338805,214.648921 106.785175,221.715328 86.5573847,221.715328 C66.3295945,221.715328 57.5349031,211.999018 52.2580882,202.282707 C45.2223351,190.799795 39.9455202,152.817854 51.3786191,106.002904 Z" id="Shape" fill="#97C998"></path>
            <g id="Group" transform="translate(91.240876, 20.985401)">
                <path d="M11.6275795,40.5956424 C12.5183984,42.3532965 12.5183984,44.1109506 13.4092172,45.8686047 C13.4092172,45.8686047 12.5183984,45.8686047 12.5183984,45.8686047 L8.06430417,49.3839129 C7.17348533,50.2627399 6.28266649,52.020394 7.17348533,52.8992211 L8.06430417,54.6568752 C8.95512301,55.5357022 10.7367607,56.4145293 11.6275795,55.5357022 L16.0816737,52.020394 C16.0816737,52.020394 16.9724926,52.020394 16.9724926,51.141567 C17.8633114,52.020394 18.7541302,52.8992211 20.5357679,53.7780481 C20.5357679,53.7780481 19.6449491,54.6568752 19.6449491,54.6568752 L17.8633114,59.0510104 C16.9724926,60.8086645 17.8633114,61.6874916 19.6449491,62.5663186 L21.4265868,63.4451456 C23.2082244,64.3239727 24.0990433,63.4451456 24.9898621,61.6874916 L27.6623186,56.4145293 C27.6623186,56.4145293 27.6623186,55.5357022 27.6623186,55.5357022 C29.4439563,56.4145293 31.225594,56.4145293 33.0072317,56.4145293 C33.0072317,56.4145293 33.0072317,57.2933563 33.0072317,57.2933563 L33.8980505,63.4451456 C33.8980505,65.2027997 35.6796882,66.0816268 36.570507,66.0816268 L38.3521447,66.0816268 C40.1337824,66.0816268 41.0246012,64.3239727 41.0246012,63.4451456 L40.1337824,57.2933563 C40.1337824,57.2933563 40.1337824,57.2933563 40.1337824,56.4145293 C41.9154201,56.4145293 43.6970578,55.5357022 45.4786954,54.6568752 C45.4786954,54.6568752 45.4786954,55.5357022 46.3695143,55.5357022 L49.9327896,59.9298375 C50.8236085,60.8086645 52.6052462,61.6874916 53.496065,60.8086645 L54.3868838,59.9298375 C55.2777027,59.0510104 56.1685215,57.2933563 55.2777027,56.4145293 L51.7144273,52.020394 C51.7144273,52.020394 50.8236085,51.141567 50.8236085,51.141567 C51.7144273,50.2627399 53.496065,48.5050858 54.3868838,46.7474317 C54.3868838,46.7474317 55.2777027,46.7474317 55.2777027,47.6262588 L60.6226157,50.2627399 C62.4042534,51.141567 63.2950722,50.2627399 64.1858911,48.5050858 L65.0767099,46.7474317 C65.9675288,45.8686047 65.0767099,44.1109506 63.2950722,43.2321235 L55.2777027,40.5956424 C55.2777027,40.5956424 54.3868838,40.5956424 54.3868838,40.5956424 C55.2777027,38.8379883 55.2777027,37.0803342 55.2777027,35.3226801 C55.2777027,35.3226801 56.1685215,35.3226801 56.1685215,35.3226801 L62.4042534,34.4438531 C64.1858911,34.4438531 65.0767099,32.686199 65.0767099,31.8073719 L65.0767099,30.0497178 C65.0767099,28.2920637 63.2950722,27.4132367 62.4042534,27.4132367 L55.2777027,28.2920637 C55.2777027,28.2920637 54.3868838,28.2920637 54.3868838,28.2920637 C53.496065,26.5344096 53.496065,24.7767555 52.6052462,23.0191014 C52.6052462,23.0191014 53.496065,23.0191014 53.496065,22.1402744 L57.9501592,18.6249662 C58.840978,17.7461392 59.7317969,15.9884851 58.840978,15.109658 L57.9501592,13.3520039 C57.0593404,12.4731769 55.2777027,11.5943498 54.3868838,12.4731769 L49.9327896,15.9884851 C49.9327896,15.9884851 49.0419708,16.8673121 49.0419708,16.8673121 C47.2603331,15.109658 45.4786954,14.230831 43.6970578,13.3520039 C43.6970578,13.3520039 44.5878766,12.4731769 44.5878766,12.4731769 L47.2603331,7.20021459 C48.151152,5.44256049 47.2603331,4.56373344 45.4786954,3.68490639 L43.6970578,2.80607935 C42.8062389,1.9272523 41.0246012,2.80607935 40.1337824,4.56373344 L37.4613259,9.83669573 C37.4613259,9.83669573 37.4613259,10.7155228 37.4613259,10.7155228 C35.6796882,10.7155228 34.7888694,9.83669573 33.0072317,9.83669573 C33.0072317,9.83669573 33.0072317,8.95786868 33.0072317,8.95786868 L32.1164128,2.80607935 C32.1164128,1.04842525 30.3347752,0.169598202 29.4439563,0.169598202 L27.6623186,0.169598202 C25.880681,0.169598202 24.9898621,1.9272523 24.9898621,2.80607935 L25.880681,8.95786868 C25.880681,8.95786868 25.880681,9.83669573 25.880681,9.83669573 C24.0990433,10.7155228 22.3174056,10.7155228 20.5357679,12.4731769 C20.5357679,12.4731769 20.5357679,11.5943498 19.6449491,11.5943498 L16.0816737,7.20021459 C15.1908549,6.32138754 13.4092172,5.44256049 12.5183984,6.32138754 L11.6275795,7.20021459 C10.7367607,8.07904163 9.84594185,9.83669573 10.7367607,10.7155228 L14.300036,15.109658 C14.300036,15.109658 15.1908549,15.9884851 15.1908549,15.9884851 C13.4092172,17.7461392 12.5183984,18.6249662 11.6275795,21.2614474 C11.6275795,21.2614474 10.7367607,21.2614474 10.7367607,20.3826203 L5.39184765,17.7461392 C3.61020997,16.8673121 2.71939113,17.7461392 1.82857229,19.5037933 L2.71939113,23.8979285 C1.82857229,24.7767555 2.71939113,26.5344096 4.50102881,27.4132367 L9.84594185,30.0497178 C9.84594185,30.0497178 10.7367607,30.0497178 10.7367607,30.0497178 C10.7367607,31.8073719 9.84594185,32.686199 9.84594185,34.4438531 C9.84594185,34.4438531 8.95512301,34.4438531 8.95512301,34.4438531 L2.71939113,35.3226801 C0.937753447,35.3226801 0.046934607,37.0803342 0.046934607,37.9591613 L0.046934607,39.7168154 C0.046934607,41.4744695 1.82857229,42.3532965 2.71939113,42.3532965 L8.95512301,41.4744695 C10.7367607,40.5956424 10.7367607,40.5956424 11.6275795,40.5956424 Z" id="Shape" fill="#066736"></path>
                <ellipse id="Oval" fill="#10996A" transform="translate(32.984605, 34.426189) rotate(-7.140652) translate(-32.984605, -34.426189) " cx="32.9846049" cy="34.4261886" rx="13.3616902" ry="13.1818213"></ellipse>
            </g>
            <g id="Group" transform="translate(63.868613, 65.693431)">
                <g fill="#066736" id="Shape">
                    <path d="M5.82840423,20.7038582 C4.06965769,14.4629823 8.46652404,7.33055266 14.6221369,5.54744526 C20.7777498,3.76433785 27.812736,8.22210636 29.5714825,14.4629823 C31.330229,20.7038582 26.9333627,27.8362878 20.7777498,29.6193952 C13.7427637,31.4025026 7.58715077,27.8362878 5.82840423,20.7038582 Z"></path>
                    <path d="M29.5714825,13.5714286 L33.0889756,12.6798749 C33.9683489,12.6798749 34.8477221,12.6798749 34.8477221,13.5714286 L34.8477221,14.4629823 C34.8477221,15.354536 34.8477221,16.2460897 33.9683489,16.2460897 L31.330229,17.1376434 C30.4508558,17.1376434 29.5714825,17.1376434 29.5714825,16.2460897 L29.5714825,15.354536 C27.812736,14.4629823 28.6921092,13.5714286 29.5714825,13.5714286 Z"></path>
                    <path d="M2.31091115,19.8123045 L4.94903096,18.9207508 C5.82840423,18.9207508 6.7077775,18.9207508 6.7077775,19.8123045 L6.7077775,20.7038582 C6.7077775,21.5954119 6.7077775,22.4869656 5.82840423,22.4869656 L3.19028442,23.3785193 C2.31091115,23.3785193 1.43153788,23.3785193 1.43153788,22.4869656 L1.43153788,21.5954119 C0.552164611,20.7038582 1.43153788,19.8123045 2.31091115,19.8123045 Z"></path>
                    <path d="M21.6571231,29.6193952 L22.5364964,32.2940563 C22.5364964,33.18561 22.5364964,34.0771637 21.6571231,34.0771637 L20.7777498,34.0771637 C19.8983765,34.0771637 19.0190033,34.0771637 19.0190033,33.18561 L18.13963,30.5109489 C18.13963,29.6193952 18.13963,28.7278415 19.0190033,28.7278415 L19.8983765,28.7278415 C20.7777498,28.7278415 21.6571231,29.6193952 21.6571231,29.6193952 Z"></path>
                    <path d="M15.5015102,1.98123045 L16.3808835,5.54744526 C16.3808835,6.43899896 16.3808835,7.33055266 15.5015102,7.33055266 L14.6221369,7.33055266 C13.7427637,7.33055266 12.8633904,7.33055266 12.8633904,6.43899896 L11.9840171,2.87278415 C11.9840171,1.98123045 11.9840171,1.08967675 12.8633904,1.08967675 L13.7427637,1.08967675 C14.6221369,1.08967675 15.5015102,1.08967675 15.5015102,1.98123045 Z"></path>
                    <path d="M3.19028442,12.6798749 L5.82840423,13.5714286 C6.7077775,13.5714286 6.7077775,14.4629823 6.7077775,15.354536 L6.7077775,16.2460897 C6.7077775,17.1376434 5.82840423,17.1376434 4.94903096,17.1376434 L1.43153788,16.2460897 C0.552164611,16.2460897 0.552164611,15.354536 0.552164611,14.4629823 L0.552164611,13.5714286 C1.43153788,12.6798749 2.31091115,11.7883212 3.19028442,12.6798749 Z"></path>
                    <path d="M7.58715077,4.65589155 L10.2252706,7.33055266 C11.1046438,8.22210636 11.1046438,9.11366006 10.2252706,9.11366006 L9.34589731,10.0052138 C8.46652404,10.8967675 7.58715077,10.8967675 7.58715077,10.0052138 L5.82840423,7.33055266 C4.94903096,6.43899896 4.94903096,5.54744526 5.82840423,5.54744526 L6.7077775,4.65589155 C5.82840423,4.65589155 6.7077775,4.65589155 7.58715077,4.65589155 Z"></path>
                    <path d="M26.9333627,26.0531804 L28.6921092,28.7278415 C29.5714825,29.6193952 29.5714825,30.5109489 28.6921092,30.5109489 L27.812736,31.4025026 C26.9333627,32.2940563 26.0539894,32.2940563 26.0539894,31.4025026 L24.2952429,28.7278415 C23.4158696,27.8362878 23.4158696,26.9447341 24.2952429,26.9447341 L25.1746162,26.0531804 C26.0539894,26.0531804 26.9333627,26.0531804 26.9333627,26.0531804 Z"></path>
                    <path d="M10.2252706,27.8362878 L7.58715077,29.6193952 C6.7077775,30.5109489 5.82840423,30.5109489 5.82840423,29.6193952 L4.94903096,28.7278415 C4.06965769,27.8362878 4.06965769,26.9447341 4.94903096,26.9447341 L7.58715077,25.1616267 C8.46652404,24.270073 9.34589731,24.270073 9.34589731,25.1616267 L10.2252706,26.0531804 C10.2252706,26.9447341 10.2252706,27.8362878 10.2252706,27.8362878 Z"></path>
                    <path d="M30.4508558,8.22210636 L27.812736,10.8967675 C26.9333627,11.7883212 26.0539894,11.7883212 26.0539894,10.8967675 L25.1746162,10.0052138 C24.2952429,9.11366006 24.2952429,8.22210636 25.1746162,8.22210636 L27.812736,5.54744526 C28.6921092,4.65589155 29.5714825,4.65589155 29.5714825,5.54744526 L30.4508558,6.43899896 C31.330229,6.43899896 31.330229,8.22210636 30.4508558,8.22210636 Z"></path>
                    <path d="M29.5714825,20.7038582 L32.2096023,21.5954119 C33.0889756,21.5954119 33.0889756,22.4869656 33.0889756,23.3785193 L33.0889756,24.270073 C33.0889756,25.1616267 32.2096023,25.1616267 31.330229,25.1616267 L28.6921092,24.270073 C27.812736,24.270073 27.812736,23.3785193 27.812736,22.4869656 L27.812736,21.5954119 C28.6921092,20.7038582 28.6921092,19.8123045 29.5714825,20.7038582 Z"></path>
                    <path d="M23.4158696,2.87278415 L22.5364964,6.43899896 C22.5364964,7.33055266 21.6571231,7.33055266 20.7777498,7.33055266 L19.8983765,7.33055266 C19.0190033,6.43899896 19.0190033,5.54744526 19.0190033,4.65589155 L19.8983765,1.08967675 C19.8983765,0.198123045 20.7777498,0.198123045 21.6571231,0.198123045 L22.5364964,0.198123045 C23.4158696,1.08967675 23.4158696,1.98123045 23.4158696,2.87278415 Z"></path>
                    <path d="M15.5015102,30.5109489 L14.6221369,33.18561 C14.6221369,34.0771637 13.7427637,34.0771637 12.8633904,34.0771637 L11.9840171,34.0771637 C11.1046438,34.0771637 11.1046438,33.18561 11.1046438,32.2940563 L11.9840171,29.6193952 C11.9840171,28.7278415 12.8633904,28.7278415 13.7427637,28.7278415 L14.6221369,28.7278415 C15.5015102,28.7278415 15.5015102,29.6193952 15.5015102,30.5109489 Z"></path>
                </g>
                <ellipse id="Oval" fill="#10996A" transform="translate(17.208462, 18.064770) rotate(-13.220507) translate(-17.208462, -18.064770) " cx="17.2084616" cy="18.0647701" rx="7.03500705" ry="7.1324508"></ellipse>
            </g>
            <path d="M5.30337591,125.285128 C6.1872719,126.169024 6.1872719,126.169024 7.07116788,127.05292 C7.07116788,127.05292 7.07116788,127.05292 7.07116788,127.05292 L5.30337591,128.820712 C5.30337591,129.704608 5.30337591,129.704608 5.30337591,130.588504 L6.1872719,130.588504 C7.07116788,130.588504 7.07116788,130.588504 7.95506387,130.588504 L9.72285584,128.820712 C9.72285584,128.820712 9.72285584,128.820712 9.72285584,128.820712 C10.6067518,128.820712 10.6067518,129.704608 11.4906478,129.704608 C11.4906478,129.704608 11.4906478,129.704608 11.4906478,130.588504 L11.4906478,133.240192 C11.4906478,134.124088 12.3745438,134.124088 12.3745438,134.124088 L13.2584398,134.124088 C14.1423358,134.124088 14.1423358,134.124088 14.1423358,133.240192 L14.1423358,130.588504 C14.1423358,130.588504 14.1423358,130.588504 14.1423358,130.588504 C15.0262318,130.588504 15.9101277,130.588504 16.7940237,130.588504 C16.7940237,130.588504 16.7940237,130.588504 16.7940237,130.588504 L17.6779197,133.240192 C17.6779197,134.124088 18.5618157,134.124088 19.4457117,134.124088 L20.3296077,134.124088 C21.2135036,134.124088 21.2135036,133.240192 21.2135036,132.356296 L20.3296077,129.704608 C20.3296077,129.704608 20.3296077,129.704608 20.3296077,129.704608 C21.2135036,128.820712 22.0973996,128.820712 22.0973996,127.936816 C22.0973996,127.936816 22.0973996,127.936816 22.0973996,127.936816 L24.7490876,129.704608 C25.6329836,129.704608 25.6329836,129.704608 26.5168796,129.704608 L26.5168796,128.820712 C26.5168796,127.936816 26.5168796,127.936816 26.5168796,127.05292 L23.8651916,125.285128 C23.8651916,125.285128 23.8651916,125.285128 23.8651916,125.285128 C23.8651916,124.401232 24.7490876,123.517336 24.7490876,122.63344 C24.7490876,122.63344 24.7490876,122.63344 24.7490876,122.63344 L27.4007755,122.63344 C28.2846715,122.63344 28.2846715,121.749544 28.2846715,121.749544 L28.2846715,120.865648 C28.2846715,119.981752 27.4007755,119.981752 27.4007755,119.981752 L24.7490876,119.981752 C24.7490876,119.981752 24.7490876,119.981752 24.7490876,119.981752 C24.7490876,119.097856 24.7490876,118.21396 23.8651916,117.330064 C23.8651916,117.330064 23.8651916,117.330064 23.8651916,117.330064 L26.5168796,115.562272 C27.4007755,115.562272 27.4007755,114.678376 27.4007755,113.79448 L27.4007755,112.910584 C27.4007755,112.026688 26.5168796,112.026688 25.6329836,112.026688 L22.0973996,113.79448 C22.0973996,113.79448 22.0973996,113.79448 22.0973996,113.79448 C21.2135036,112.910584 21.2135036,112.910584 20.3296077,112.026688 C20.3296077,112.026688 20.3296077,112.026688 20.3296077,112.026688 L22.0973996,109.375 C22.0973996,108.491104 22.0973996,108.491104 22.0973996,107.607208 L21.2135036,107.607208 C20.3296077,107.607208 20.3296077,107.607208 19.4457117,107.607208 L17.6779197,110.258896 C17.6779197,110.258896 17.6779197,110.258896 17.6779197,111.142792 C16.7940237,111.142792 15.9101277,110.258896 15.0262318,110.258896 C15.0262318,110.258896 15.0262318,110.258896 15.0262318,109.375 L15.0262318,106.723312 C15.0262318,105.839416 14.1423358,105.839416 14.1423358,105.839416 L13.2584398,105.839416 C12.3745438,105.839416 12.3745438,106.723312 12.3745438,106.723312 L12.3745438,109.375 C12.3745438,109.375 12.3745438,109.375 12.3745438,110.258896 C11.4906478,110.258896 10.6067518,110.258896 10.6067518,111.142792 C10.6067518,111.142792 10.6067518,111.142792 10.6067518,111.142792 L8.83895985,107.607208 C8.83895985,106.723312 7.95506387,106.723312 7.07116788,107.607208 L6.1872719,107.607208 C5.30337591,107.607208 5.30337591,108.491104 6.1872719,109.375 L7.07116788,112.026688 C7.07116788,112.026688 7.07116788,112.026688 7.07116788,112.026688 C6.1872719,112.910584 6.1872719,112.910584 5.30337591,113.79448 C5.30337591,113.79448 5.30337591,113.79448 5.30337591,112.910584 L3.53558394,112.026688 C2.65168796,112.026688 2.65168796,112.026688 1.76779197,112.026688 L1.76779197,112.910584 C1.76779197,113.79448 1.76779197,113.79448 1.76779197,114.678376 L3.53558394,116.446168 C3.53558394,116.446168 4.41947993,116.446168 4.41947993,116.446168 C4.41947993,117.330064 3.53558394,118.21396 3.53558394,119.097856 C3.53558394,119.097856 3.53558394,119.097856 3.53558394,119.097856 L0.883895985,119.097856 C0,119.097856 0,119.981752 0,119.981752 L0,120.865648 C0,121.749544 0.883895985,121.749544 0.883895985,121.749544 L3.53558394,121.749544 C3.53558394,121.749544 3.53558394,121.749544 4.41947993,121.749544 C4.41947993,122.63344 4.41947993,122.63344 5.30337591,123.517336 C5.30337591,123.517336 5.30337591,123.517336 4.41947993,123.517336 L2.65168796,124.401232 C1.76779197,124.401232 1.76779197,125.285128 2.65168796,126.169024 L2.65168796,127.05292 C2.65168796,127.936816 3.53558394,127.936816 4.41947993,127.936816 L5.30337591,125.285128 C5.30337591,125.285128 5.30337591,125.285128 5.30337591,125.285128 Z M7.95506387,122.63344 C6.1872719,119.981752 7.07116788,116.446168 10.6067518,114.678376 C13.2584398,112.910584 16.7940237,113.79448 18.5618157,117.330064 C20.3296077,119.981752 19.4457117,123.517336 15.9101277,125.285128 C13.2584398,126.169024 9.72285584,125.285128 7.95506387,122.63344 Z" id="Shape" fill="#231F20"></path>
            <rect id="Rectangle-path" fill="#231F20" x="2.73722628" y="138.686131" width="20.9854015" height="35.5839416"></rect>
            <polygon id="Shape" fill="#231F20" points="155.109489 106.751825 208.941606 106.751825 208.941606 120.961071 175.079468 120.961071 175.079468 131.618005 206.336826 131.618005 206.336826 145.827251 175.079468 145.827251 175.079468 158.260341 208.941606 158.260341 208.941606 173.357664 155.109489 173.357664"></polygon>
            <polygon id="Shape" fill="#231F20" points="232.664234 173.357664 232.664234 106.751825 260.283383 106.751825 270.083727 147.603406 280.775011 106.751825 308.394161 106.751825 308.394161 173.357664 291.466295 173.357664 291.466295 121.849148 278.10219 173.357664 262.956204 173.357664 250.48304 123.625304 249.5921 173.357664"></polygon>
            <path d="M89.729694,136.228699 L89.729694,149.449225 L102.890378,149.449225 L102.890378,155.618803 C102.890378,155.618803 96.7487253,160.907013 87.9749361,160.025645 C79.2011469,159.144276 74.8142523,152.974698 74.8142523,146.805119 C73.9368734,140.635541 74.8142523,127.415016 80.9559048,123.889543 C87.0975572,120.364069 93.2392096,121.245438 96.7487253,123.889543 C100.258241,126.533648 100.258241,130.059121 100.258241,130.059121 L119.560577,125.652279 C119.560577,125.652279 117.805819,115.957228 109.03203,110.669017 C103.767757,107.143544 88.852315,105.380807 77.4463891,108.024912 C71.3047366,109.787649 59.0214317,112.431754 54.6345371,133.584594 C51.1250214,152.974698 59.8988106,166.195223 66.0404631,169.720696 C73.0594945,174.127538 83.5880415,176.771643 100.258241,174.127538 C102.890378,174.127538 104.645136,173.24617 107.277272,172.364801 C108.154651,172.364801 109.03203,171.483433 109.03203,171.483433 C109.03203,171.483433 112.541546,169.720696 115.173683,168.839328 C116.928441,167.95796 120.437956,165.313855 120.437956,165.313855 L120.437956,160.025645 C120.437956,159.144276 120.437956,158.262908 120.437956,157.38154 C120.437956,150.330593 120.437956,136.228699 120.437956,136.228699 L89.729694,136.228699 Z" id="Shape" fill="#231F20"></path>
        </g>
    </g>
</svg>