<?xml version="1.0" encoding="utf-8"?>
<!-- Generator: Adobe Illustrator 21.1.0, SVG Export Plug-In . SVG Version: 6.00 Build 0)  -->
<svg version="1.1" id="Layer_1" xmlns="http://www.w3.org/2000/svg" xmlns:xlink="http://www.w3.org/1999/xlink" x="0px" y="0px"
	 viewBox="0 0 40 40" style="enable-background:new 0 0 40 40;" xml:space="preserve">
<style type="text/css">
	.st0{fill-rule:evenodd;clip-rule:evenodd;fill:#10996A;}
	.st1{fill-rule:evenodd;clip-rule:evenodd;fill:#1C6937;}
	.st2{fill-rule:evenodd;clip-rule:evenodd;fill:#97C998;}
	.st3{fill-rule:evenodd;clip-rule:evenodd;fill:#066736;}
	.st4{fill-rule:evenodd;clip-rule:evenodd;fill:#231F20;}
</style>
<g>
	<path class="st0" d="M16.1,27.2c0.4,0.6,0.9,1.1,1.5,1.5c-0.1,0.1-0.2,0.2-0.2,0.3l-1.2,2c-0.3,0.5-0.1,1.1,0.4,1.4l0.6,0.3
		c0.5,0.3,1.1,0.1,1.4-0.4l1.2-2c0.1-0.1,0.1-0.2,0.1-0.4c0.5,0.2,1,0.4,1.6,0.5c-0.1,0.1-0.1,0.3-0.1,0.4l0,2.3c0,0.6,0.5,1,1,1H23
		c0.6,0,1-0.5,1-1l0-2.3c0-0.1,0-0.2-0.1-0.3c0.7-0.1,1.3-0.2,2-0.5c0,0.1,0.1,0.2,0.1,0.3l1.1,2c0.3,0.5,0.9,0.7,1.4,0.4l0.6-0.3
		c0.5-0.3,0.7-0.9,0.4-1.4l-1.2-2c0-0.1-0.1-0.1-0.2-0.2c0.6-0.4,1.1-1,1.6-1.5c0.1,0.1,0.2,0.2,0.3,0.3l2,1.2
		c0.5,0.3,1.1,0.1,1.4-0.4l0.3-0.6c0.3-0.5,0.1-1.1-0.4-1.4l-2-1.2c-0.1-0.1-0.3-0.1-0.4-0.1c0.3-0.6,0.5-1.3,0.6-2
		c0.1,0,0.2,0.1,0.3,0.1l2.3,0c0.6,0,1-0.5,1-1v-0.7c0-0.6-0.5-1-1-1H32c-0.1,0-0.2,0-0.3,0c-0.1-0.7-0.3-1.4-0.5-2.1
		c0.1,0,0.2-0.1,0.3-0.1l2-1.2c0.5-0.3,0.7-0.9,0.4-1.4l-0.3-0.6c-0.3-0.5-0.9-0.7-1.4-0.4l-2,1.2c-0.1,0-0.2,0.1-0.2,0.2
		c-0.4-0.6-1-1.1-1.5-1.6c0.1-0.1,0.2-0.2,0.3-0.3l1.1-2c0.3-0.5,0.1-1.1-0.4-1.4l-0.6-0.3c-0.5-0.3-1.1-0.1-1.4,0.4l-1.2,2
		c-0.1,0.1-0.1,0.3-0.1,0.4c-0.7-0.3-1.5-0.5-2.3-0.6c0.1-0.1,0.1-0.3,0.1-0.4l0-2.3c0-0.6-0.4-1-1-1h-0.6c-0.6,0-1,0.5-1,1l0,2.3
		c0,0.2,0,0.4,0.1,0.5c-0.6,0.1-1.2,0.3-1.8,0.5c0-0.1-0.1-0.2-0.1-0.3l-1.1-2c-0.3-0.5-0.9-0.7-1.4-0.4l-0.6,0.3
		c-0.5,0.3-0.7,0.9-0.4,1.4l1.1,2c0.1,0.1,0.1,0.2,0.2,0.2c-0.6,0.5-1.1,1-1.5,1.6c-0.1-0.1-0.2-0.3-0.4-0.4l-2-1.2
		c-0.5-0.3-1.1-0.1-1.4,0.4L12,15.8c-0.3,0.5-0.1,1.1,0.4,1.4l2,1.2c0.2,0.1,0.4,0.1,0.6,0.1c-0.3,0.7-0.5,1.5-0.5,2.3
		c-0.1,0-0.2-0.1-0.4-0.1l-2.3,0c-0.6,0-1,0.5-1,1l0,0.7c0,0.6,0.4,1,1,1l2.3,0c0.2,0,0.3,0,0.5-0.1c0.1,0.5,0.3,1.1,0.5,1.6
		c-0.1,0-0.3,0.1-0.4,0.1l-2,1.2c-0.5,0.3-0.7,0.9-0.4,1.4l0.3,0.6c0.3,0.5,0.9,0.7,1.4,0.4l2-1.2C15.9,27.4,16,27.3,16.1,27.2z
		 M18.5,24.4c-1.4-2.5-0.6-5.7,1.9-7.2c2.5-1.4,5.6-0.6,7,1.9c1.4,2.5,0.6,5.7-1.9,7.2C23.1,27.8,19.9,26.9,18.5,24.4z"/>
	<path class="st1" d="M7.4,18c1.4-6.1,2.9-8.3,3.2-9.2C11,7.9,12.2,6.2,14,5.9c1.8-0.4,4.2,0.7,4.5,0.8c0.2,0.1,2.3,0.9,3.1,2.2
		c0.9,1.4,0.8,3.2-0.1,5.5c-1,2.3-2.2,4.2-2.6,5.2c-0.3,0.7-0.5,1.9-0.4,4.5c0.1,2.6-0.1,4.7-1,6c-0.8,1.1-2.4,2.1-5.1,2
		c-2.7,0-4-1.3-4.7-2.5C6.8,28,5.9,24,7.4,18z"/>
	<path class="st2" d="M8.5,17.8c1.4-5.5,2.5-7.5,2.9-8.2c0.5-0.9,1.2-2.2,2.7-2.5c1.5-0.3,3.5,0.6,3.7,0.6c0.2,0.1,2,0.7,2.8,1.9
		c0.7,1.2,0.5,2.8-0.4,4.8c-0.9,2.1-2,3.8-2.3,4.6c-0.3,0.6-0.6,1.8-0.5,4.1c0.1,2.3,0,4.9-0.7,6c-0.7,1-1.9,1.8-4.2,1.8
		c-2.3,0-3.3-1.1-3.9-2.2C7.8,27.4,7.2,23.1,8.5,17.8z"/>
	<g>
		<path class="st3" d="M14.1,12.9c0.1,0.2,0.1,0.4,0.2,0.6c0,0-0.1,0-0.1,0l-0.5,0.4c-0.1,0.1-0.2,0.3-0.1,0.4l0.1,0.2
			c0.1,0.1,0.3,0.2,0.4,0.1l0.5-0.4c0,0,0.1,0,0.1-0.1c0.1,0.1,0.2,0.2,0.4,0.3c0,0-0.1,0.1-0.1,0.1L14.8,15c-0.1,0.2,0,0.3,0.2,0.4
			l0.2,0.1c0.2,0.1,0.3,0,0.4-0.2l0.3-0.6c0,0,0-0.1,0-0.1c0.2,0.1,0.4,0.1,0.6,0.1c0,0,0,0.1,0,0.1l0.1,0.7c0,0.2,0.2,0.3,0.3,0.3
			l0.2,0c0.2,0,0.3-0.2,0.3-0.3l-0.1-0.7c0,0,0,0,0-0.1c0.2,0,0.4-0.1,0.6-0.2c0,0,0,0.1,0.1,0.1l0.4,0.5c0.1,0.1,0.3,0.2,0.4,0.1
			l0.1-0.1c0.1-0.1,0.2-0.3,0.1-0.4l-0.4-0.5c0,0-0.1-0.1-0.1-0.1c0.1-0.1,0.3-0.3,0.4-0.5c0,0,0.1,0,0.1,0.1l0.6,0.3
			c0.2,0.1,0.3,0,0.4-0.2l0.1-0.2c0.1-0.1,0-0.3-0.2-0.4L19,12.9c0,0-0.1,0-0.1,0c0.1-0.2,0.1-0.4,0.1-0.6c0,0,0.1,0,0.1,0l0.7-0.1
			c0.2,0,0.3-0.2,0.3-0.3l0-0.2c0-0.2-0.2-0.3-0.3-0.3L19,11.5c0,0-0.1,0-0.1,0c-0.1-0.2-0.1-0.4-0.2-0.6c0,0,0.1,0,0.1-0.1l0.5-0.4
			c0.1-0.1,0.2-0.3,0.1-0.4l-0.1-0.2c-0.1-0.1-0.3-0.2-0.4-0.1l-0.5,0.4c0,0-0.1,0.1-0.1,0.1c-0.2-0.2-0.4-0.3-0.6-0.4
			c0,0,0.1-0.1,0.1-0.1l0.3-0.6c0.1-0.2,0-0.3-0.2-0.4l-0.2-0.1c-0.1-0.1-0.3,0-0.4,0.2l-0.3,0.6c0,0,0,0.1,0,0.1
			c-0.2,0-0.3-0.1-0.5-0.1c0,0,0-0.1,0-0.1l-0.1-0.7c0-0.2-0.2-0.3-0.3-0.3l-0.2,0c-0.2,0-0.3,0.2-0.3,0.3l0.1,0.7c0,0,0,0.1,0,0.1
			c-0.2,0.1-0.4,0.1-0.6,0.3c0,0,0-0.1-0.1-0.1l-0.4-0.5c-0.1-0.1-0.3-0.2-0.4-0.1l-0.1,0.1c-0.1,0.1-0.2,0.3-0.1,0.4l0.4,0.5
			c0,0,0.1,0.1,0.1,0.1c-0.2,0.2-0.3,0.3-0.4,0.6c0,0-0.1,0-0.1-0.1l-0.6-0.3c-0.2-0.1-0.3,0-0.4,0.2L13.1,11
			c-0.1,0.1,0,0.3,0.2,0.4l0.6,0.3c0,0,0.1,0,0.1,0c0,0.2-0.1,0.3-0.1,0.5c0,0-0.1,0-0.1,0l-0.7,0.1c-0.2,0-0.3,0.2-0.3,0.3l0,0.2
			c0,0.2,0.2,0.3,0.3,0.3l0.7-0.1C14,12.9,14,12.9,14.1,12.9z"/>
		<ellipse transform="matrix(0.9922 -0.1243 0.1243 0.9922 -1.3903 2.1441)" class="st0" cx="16.5" cy="12.2" rx="1.5" ry="1.5"/>
	</g>
	<g>
		<g>
			<path class="st3" d="M10.5,15.6c-0.2-0.7,0.3-1.5,1-1.7c0.7-0.2,1.5,0.3,1.7,1c0.2,0.7-0.3,1.5-1,1.7
				C11.4,16.8,10.7,16.4,10.5,15.6z"/>
			<path class="st3" d="M13.2,14.8l0.4-0.1c0.1,0,0.2,0,0.2,0.1l0,0.1c0,0.1,0,0.2-0.1,0.2l-0.3,0.1c-0.1,0-0.2,0-0.2-0.1l0-0.1
				C13,14.9,13.1,14.8,13.2,14.8z"/>
			<path class="st3" d="M10.1,15.5l0.3-0.1c0.1,0,0.2,0,0.2,0.1l0,0.1c0,0.1,0,0.2-0.1,0.2l-0.3,0.1c-0.1,0-0.2,0-0.2-0.1l0-0.1
				C9.9,15.6,10,15.5,10.1,15.5z"/>
			<path class="st3" d="M12.3,16.6l0.1,0.3c0,0.1,0,0.2-0.1,0.2l-0.1,0c-0.1,0-0.2,0-0.2-0.1l-0.1-0.3c0-0.1,0-0.2,0.1-0.2l0.1,0
				C12.2,16.5,12.3,16.6,12.3,16.6z"/>
			<path class="st3" d="M11.6,13.5l0.1,0.4c0,0.1,0,0.2-0.1,0.2l-0.1,0c-0.1,0-0.2,0-0.2-0.1l-0.1-0.4c0-0.1,0-0.2,0.1-0.2l0.1,0
				C11.5,13.4,11.6,13.4,11.6,13.5z"/>
			<path class="st3" d="M10.2,14.7l0.3,0.1c0.1,0,0.1,0.1,0.1,0.2l0,0.1c0,0.1-0.1,0.1-0.2,0.1L10,15.1c-0.1,0-0.1-0.1-0.1-0.2
				l0-0.1C10,14.7,10.1,14.6,10.2,14.7z"/>
			<path class="st3" d="M10.7,13.8l0.3,0.3c0.1,0.1,0.1,0.2,0,0.2l-0.1,0.1c-0.1,0.1-0.2,0.1-0.2,0l-0.2-0.3c-0.1-0.1-0.1-0.2,0-0.2
				l0.1-0.1C10.5,13.8,10.6,13.8,10.7,13.8z"/>
			<path class="st3" d="M12.9,16.2l0.2,0.3c0.1,0.1,0.1,0.2,0,0.2l-0.1,0.1c-0.1,0.1-0.2,0.1-0.2,0l-0.2-0.3c-0.1-0.1-0.1-0.2,0-0.2
				l0.1-0.1C12.8,16.2,12.9,16.2,12.9,16.2z"/>
			<path class="st3" d="M11,16.4l-0.3,0.2c-0.1,0.1-0.2,0.1-0.2,0l-0.1-0.1c-0.1-0.1-0.1-0.2,0-0.2l0.3-0.2c0.1-0.1,0.2-0.1,0.2,0
				l0.1,0.1C11,16.3,11,16.4,11,16.4z"/>
			<path class="st3" d="M13.3,14.2L13,14.5c-0.1,0.1-0.2,0.1-0.2,0l-0.1-0.1c-0.1-0.1-0.1-0.2,0-0.2l0.3-0.3c0.1-0.1,0.2-0.1,0.2,0
				l0.1,0.1C13.4,14,13.4,14.2,13.3,14.2z"/>
			<path class="st3" d="M13.2,15.6l0.3,0.1c0.1,0,0.1,0.1,0.1,0.2l0,0.1c0,0.1-0.1,0.1-0.2,0.1L13.1,16c-0.1,0-0.1-0.1-0.1-0.2
				l0-0.1C13.1,15.6,13.1,15.5,13.2,15.6z"/>
			<path class="st3" d="M12.5,13.6L12.4,14c0,0.1-0.1,0.1-0.2,0.1l-0.1,0C12,14,12,13.9,12,13.8l0.1-0.4c0-0.1,0.1-0.1,0.2-0.1
				l0.1,0C12.5,13.4,12.5,13.5,12.5,13.6z"/>
			<path class="st3" d="M11.6,16.7L11.5,17c0,0.1-0.1,0.1-0.2,0.1l-0.1,0c-0.1,0-0.1-0.1-0.1-0.2l0.1-0.3c0-0.1,0.1-0.1,0.2-0.1
				l0.1,0C11.6,16.5,11.6,16.6,11.6,16.7z"/>
		</g>
		<ellipse transform="matrix(0.9735 -0.2287 0.2287 0.9735 -3.1923 3.1081)" class="st0" cx="11.8" cy="15.3" rx="0.8" ry="0.8"/>
	</g>
	<path class="st4" d="M3.1,20c0.1,0.1,0.1,0.1,0.2,0.2c0,0,0,0,0,0l-0.2,0.2c0,0.1,0,0.1,0,0.2l0.1,0c0.1,0,0.1,0,0.2,0l0.2-0.2
		c0,0,0,0,0,0c0.1,0,0.1,0.1,0.2,0.1c0,0,0,0,0,0.1l0,0.3c0,0.1,0.1,0.1,0.1,0.1L4,21c0.1,0,0.1,0,0.1-0.1l0-0.3c0,0,0,0,0,0
		c0.1,0,0.2,0,0.3,0c0,0,0,0,0,0l0.1,0.3c0,0.1,0.1,0.1,0.2,0.1l0.1,0c0.1,0,0.1-0.1,0.1-0.2l-0.1-0.3c0,0,0,0,0,0
		c0.1-0.1,0.2-0.1,0.2-0.2c0,0,0,0,0,0l0.3,0.2c0.1,0,0.1,0,0.2,0l0-0.1c0-0.1,0-0.1,0-0.2l-0.3-0.2c0,0,0,0,0,0
		c0-0.1,0.1-0.2,0.1-0.3c0,0,0,0,0,0l0.3,0c0.1,0,0.1-0.1,0.1-0.1l0-0.1c0-0.1-0.1-0.1-0.1-0.1l-0.3,0c0,0,0,0,0,0
		c0-0.1,0-0.2-0.1-0.3c0,0,0,0,0,0l0.3-0.2c0.1,0,0.1-0.1,0.1-0.2l0-0.1c0-0.1-0.1-0.1-0.2-0.1L5,18.7c0,0,0,0,0,0
		c-0.1-0.1-0.1-0.1-0.2-0.2c0,0,0,0,0,0L5,18.2c0-0.1,0-0.1,0-0.2l-0.1,0c-0.1,0-0.1,0-0.2,0l-0.2,0.3c0,0,0,0,0,0.1
		c-0.1,0-0.2-0.1-0.3-0.1c0,0,0,0,0-0.1l0-0.3c0-0.1-0.1-0.1-0.1-0.1H4c-0.1,0-0.1,0.1-0.1,0.1l0,0.3c0,0,0,0,0,0.1
		c-0.1,0-0.2,0-0.2,0.1c0,0,0,0,0,0L3.5,18c0-0.1-0.1-0.1-0.2,0l-0.1,0c-0.1,0-0.1,0.1,0,0.2l0.1,0.3c0,0,0,0,0,0
		c-0.1,0.1-0.1,0.1-0.2,0.2c0,0,0,0,0-0.1l-0.2-0.1c-0.1,0-0.1,0-0.2,0l0,0.1c0,0.1,0,0.1,0,0.2l0.2,0.2c0,0,0.1,0,0.1,0
		c0,0.1-0.1,0.2-0.1,0.3c0,0,0,0,0,0l-0.3,0c-0.1,0-0.1,0.1-0.1,0.1v0.1c0,0.1,0.1,0.1,0.1,0.1l0.3,0c0,0,0,0,0.1,0
		c0,0.1,0,0.1,0.1,0.2c0,0,0,0-0.1,0l-0.2,0.1c-0.1,0-0.1,0.1,0,0.2l0,0.1c0,0.1,0.1,0.1,0.2,0.1L3.1,20C3.1,20,3.1,20,3.1,20z
		 M3.4,19.7c-0.2-0.3-0.1-0.7,0.3-0.9c0.3-0.2,0.7-0.1,0.9,0.3c0.2,0.3,0.1,0.7-0.3,0.9C4,20.1,3.6,20,3.4,19.7z"/>
	<rect x="2.8" y="21.4" class="st4" width="2.4" height="4.1"/>
	<polygon class="st4" points="20.1,18 26.3,18 26.3,19.6 22.4,19.6 22.4,20.8 26,20.8 26,22.4 22.4,22.4 22.4,23.8 26.3,23.8 
		26.3,25.5 20.1,25.5 	"/>
	<polygon class="st4" points="29.1,25.5 29.1,18 32.2,18 33.3,22.6 34.5,18 37.6,18 37.6,25.5 35.7,25.5 35.7,19.7 34.2,25.5 
		32.5,25.5 31.1,19.9 31,25.5 	"/>
	<path class="st4" d="M12.8,21.3v1.5l1.5,0l0,0.7c0,0-0.7,0.6-1.7,0.5c-1-0.1-1.5-0.8-1.5-1.5c-0.1-0.7,0-2.2,0.7-2.6
		c0.7-0.4,1.4-0.3,1.8,0c0.4,0.3,0.4,0.7,0.4,0.7l2.2-0.5c0,0-0.2-1.1-1.2-1.7c-0.6-0.4-2.3-0.6-3.6-0.3c-0.7,0.2-2.1,0.5-2.6,2.9
		c-0.4,2.2,0.6,3.7,1.3,4.1c0.8,0.5,2,0.8,3.9,0.5c0.3,0,0.5-0.1,0.8-0.2c0.1,0,0.2-0.1,0.2-0.1l0,0c0,0,0.4-0.2,0.7-0.3
		c0.2-0.1,0.6-0.4,0.6-0.4V24c0-0.1,0-0.2,0-0.3c0-0.8,0-2.4,0-2.4L12.8,21.3z"/>
</g>
</svg>
